name ./resultDataOpenSim/trcMotMarkerGrf/sub06/grf-03-04.mot
datacolumns 19
datarows 20
range 1.46800000 1.54400000
endheader

                time	     ground_force_vx	     ground_force_vy	     ground_force_vz	     ground_force_px	     ground_force_py	     ground_force_pz	   l_ground_force_vx	   l_ground_force_vy	   l_ground_force_vz	   l_ground_force_px	   l_ground_force_py	   l_ground_force_pz	     ground_torque_x	     ground_torque_y	     ground_torque_z	   l_ground_torque_x	   l_ground_torque_y	   l_ground_torque_z	
          1.46800000	         73.43024351	        595.89509210	        -25.88350146	          0.89871845	          0.00000000	          0.13989813	          0.00000000	          0.00000000	          0.00000000	          0.00000000	          0.00000000	          0.00000000	          0.00000000	          3.82557648	          0.00000000	          0.00000000	          0.00000000	          0.00000000	
          1.47200000	         77.57213695	        611.62127125	        -26.15719215	          0.89921320	          0.00000000	          0.13951591	          0.00000000	          0.00000000	          0.00000000	          0.00000000	          0.00000000	          0.00000000	          0.00000000	          3.97743461	          0.00000000	          0.00000000	          0.00000000	          0.00000000	
          1.47600000	         81.98458451	        627.14999747	        -26.00131136	          0.89969250	          0.00000000	          0.13911500	          0.00000000	          0.00000000	          0.00000000	          0.00000000	          0.00000000	          0.00000000	          0.00000000	          4.10287773	          0.00000000	          0.00000000	          0.00000000	          0.00000000	
          1.48000000	         86.85957722	        642.47028097	        -25.56221036	          0.90011869	          0.00000000	          0.13870076	          0.00000000	          0.00000000	          0.00000000	          0.00000000	          0.00000000	          0.00000000	          0.00000000	          4.19128608	          0.00000000	          0.00000000	          0.00000000	          0.00000000	
          1.48400000	         92.30866312	        657.51649635	        -25.04373112	          0.90047717	          0.00000000	          0.13828515	          0.00000000	          0.00000000	          0.00000000	          0.00000000	          0.00000000	          0.00000000	          0.00000000	          4.23805557	          0.00000000	          0.00000000	          0.00000000	          0.00000000	
          1.48800000	         98.33173185	        672.15368608	        -24.67078970	          0.90078226	          0.00000000	          0.13789146	          0.00000000	          0.00000000	          0.00000000	          0.00000000	          0.00000000	          0.00000000	          0.00000000	          4.24543815	          0.00000000	          0.00000000	          0.00000000	          0.00000000	
          1.49200000	        104.82281427	        686.19994894	        -24.64881397	          0.90104366	          0.00000000	          0.13754182	          0.00000000	          0.00000000	          0.00000000	          0.00000000	          0.00000000	          0.00000000	          0.00000000	          4.22160264	          0.00000000	          0.00000000	          0.00000000	          0.00000000	
          1.49600000	        111.60624179	        699.44689871	        -25.12337480	          0.90128296	          0.00000000	          0.13725005	          0.00000000	          0.00000000	          0.00000000	          0.00000000	          0.00000000	          0.00000000	          0.00000000	          4.17853728	          0.00000000	          0.00000000	          0.00000000	          0.00000000	
          1.50000000	        118.48273447	        711.67301861	        -26.14815119	          0.90152246	          0.00000000	          0.13701381	          0.00000000	          0.00000000	          0.00000000	          0.00000000	          0.00000000	          0.00000000	          0.00000000	          4.12947265	          0.00000000	          0.00000000	          0.00000000	          0.00000000	
          1.50400000	        125.26476084	        722.67369555	        -27.67043322	          0.90177653	          0.00000000	          0.13682305	          0.00000000	          0.00000000	          0.00000000	          0.00000000	          0.00000000	          0.00000000	          0.00000000	          4.08632299	          0.00000000	          0.00000000	          0.00000000	          0.00000000	
          1.50800000	        131.80261961	        732.29386171	        -29.53698838	          0.90207156	          0.00000000	          0.13666391	          0.00000000	          0.00000000	          0.00000000	          0.00000000	          0.00000000	          0.00000000	          0.00000000	          4.05746935	          0.00000000	          0.00000000	          0.00000000	          0.00000000	
          1.51200000	        138.00964070	        740.43101224	        -31.51833899	          0.90241735	          0.00000000	          0.13651832	          0.00000000	          0.00000000	          0.00000000	          0.00000000	          0.00000000	          0.00000000	          0.00000000	          4.04611038	          0.00000000	          0.00000000	          0.00000000	          0.00000000	
          1.51600000	        143.88691021	        747.01492932	        -33.34703130	          0.90280150	          0.00000000	          0.13637264	          0.00000000	          0.00000000	          0.00000000	          0.00000000	          0.00000000	          0.00000000	          0.00000000	          4.04939381	          0.00000000	          0.00000000	          0.00000000	          0.00000000	
          1.52000000	        149.54635549	        751.99678983	        -34.76120007	          0.90320671	          0.00000000	          0.13621846	          0.00000000	          0.00000000	          0.00000000	          0.00000000	          0.00000000	          0.00000000	          0.00000000	          4.05860998	          0.00000000	          0.00000000	          0.00000000	          0.00000000	
          1.52400000	        155.20207020	        755.35177012	        -35.55100872	          0.90360830	          0.00000000	          0.13604830	          0.00000000	          0.00000000	          0.00000000	          0.00000000	          0.00000000	          0.00000000	          0.00000000	          4.06083966	          0.00000000	          0.00000000	          0.00000000	          0.00000000	
          1.52800000	        161.08453660	        757.07235823	        -35.60916067	          0.90396584	          0.00000000	          0.13585686	          0.00000000	          0.00000000	          0.00000000	          0.00000000	          0.00000000	          0.00000000	          0.00000000	          4.04236461	          0.00000000	          0.00000000	          0.00000000	          0.00000000	
          1.53200000	        167.31186356	        757.15294773	        -34.95412981	          0.90425321	          0.00000000	          0.13565022	          0.00000000	          0.00000000	          0.00000000	          0.00000000	          0.00000000	          0.00000000	          0.00000000	          3.99333312	          0.00000000	          0.00000000	          0.00000000	          0.00000000	
          1.53600000	        173.83831344	        755.59398923	        -33.70005856	          0.90448661	          0.00000000	          0.13543650	          0.00000000	          0.00000000	          0.00000000	          0.00000000	          0.00000000	          0.00000000	          0.00000000	          3.91177581	          0.00000000	          0.00000000	          0.00000000	          0.00000000	
          1.54000000	        180.51721946	        752.41254857	        -32.01668326	          0.90469404	          0.00000000	          0.13520878	          0.00000000	          0.00000000	          0.00000000	          0.00000000	          0.00000000	          0.00000000	          0.00000000	          3.80463230	          0.00000000	          0.00000000	          0.00000000	          0.00000000	
          1.54400000	        187.17797392	        747.61369822	        -30.10898860	          0.90487349	          0.00000000	          0.13496266	          0.00000000	          0.00000000	          0.00000000	          0.00000000	          0.00000000	          0.00000000	          0.00000000	          3.68492846	          0.00000000	          0.00000000	          0.00000000	          0.00000000	
